<?xml version="1.0" encoding="UTF-8"?>
<svg width="13px" height="16px" viewBox="0 0 13 16" version="1.1" xmlns="http://www.w3.org/2000/svg" xmlns:xlink="http://www.w3.org/1999/xlink">
    <!-- Generator: Sketch 52.5 (67469) - http://www.bohemiancoding.com/sketch -->
    <title>Shape</title>
    <desc>Created with Sketch.</desc>
    <g id="Page-1" stroke="none" stroke-width="1" fill="none" fill-rule="evenodd">
        <g id="icon-delete" transform="translate(-5.000000, -3.000000)" fill="#A9AAAB" fill-rule="nonzero">
            <path d="M5.88888889,17.2222222 C5.88888889,18.2 6.68888889,19 7.66666667,19 L14.7777778,19 C15.7555556,19 16.5555556,18.2 16.5555556,17.2222222 L16.5555556,6.55555556 L5.88888889,6.55555556 L5.88888889,17.2222222 Z M8.07555556,10.8933333 L9.32888889,9.64 L11.2222222,11.5244444 L13.1066667,9.64 L14.36,10.8933333 L12.4755556,12.7777778 L14.36,14.6622222 L13.1066667,15.9155556 L11.2222222,14.0311111 L9.33777778,15.9155556 L8.08444444,14.6622222 L9.96888889,12.7777778 L8.07555556,10.8933333 Z M14.3333333,3.88888889 L13.4444444,3 L9,3 L8.11111111,3.88888889 L5,3.88888889 L5,5.66666667 L17.4444444,5.66666667 L17.4444444,3.88888889 L14.3333333,3.88888889 Z" id="Shape"></path>
        </g>
    </g>
</svg>