<?xml version="1.0" encoding="utf-8"?>
<!-- Generator: Adobe Illustrator 25.0.1, SVG Export Plug-In . SVG Version: 6.00 Build 0)  -->
<svg version="1.1" id="Layer_1" xmlns="http://www.w3.org/2000/svg" xmlns:xlink="http://www.w3.org/1999/xlink" x="0px" y="0px"
	 viewBox="0 0 701.3 211.9" style="enable-background:new 0 0 701.3 211.9;" xml:space="preserve">
<style type="text/css">
	.st0{fill-rule:evenodd;clip-rule:evenodd;fill:#292C2D;}
	.st1{fill:#F0524D;}
	.st2{fill:#FFFFFF;}
	.st3{clip-path:url(#SVGID_2_);}
	.st4{fill:url(#SVGID_3_);}
	.st5{fill:#C6C6C6;}
	.st6{fill:url(#SVGID_4_);}
	.st7{fill:url(#SVGID_5_);}
	.st8{fill:url(#SVGID_6_);}
	.st9{fill:url(#SVGID_7_);}
	.st10{fill:url(#SVGID_8_);}
</style>
<g>
	<path class="st0" d="M188.1,113.7c-2,0-4.1,0.5-5.6,1c-1.5,0.5-3.1,1.5-4.6,3.1c-1.5,1.5-2.5,3.1-3.1,5.1c-1,2-1,4.1-1,6.6
		c0,2.5,0.5,4.6,1,6.6c1,2,2,3.6,3.1,5.1c1.5,1.5,3.1,2.5,4.6,3.1c1.5,1.5,3.6,1.5,5.6,1.5c2,0,3.6-0.5,5.1-1c1.5-0.5,3.1-1.5,4.1-2
		c1-1,2-2,2.5-3.1c0.5-1,1-2,1.5-3.6l13.7,4.6c-0.5,2.5-1.5,4.6-3.1,7.1c-1.5,2-3.1,4.1-5.6,6.1c-2,2-5.1,3.1-8.1,4.6
		c-3.1,1-6.6,1.5-10.2,1.5c-4.1,0-8.1-0.5-11.7-2c-3.6-1.5-7.1-3.6-9.7-6.1c-2.5-2.5-5.1-6.1-6.6-9.7s-2.5-7.6-2.5-12.2
		s0.5-8.6,2-12.2c1.5-3.6,3.6-7.1,6.1-9.7c2.5-2.5,5.6-4.6,9.7-6.1c4.1-1.5,8.1-2,12.2-2c4.1,0,7.6,0.5,10.7,1.5
		c3.1,1,5.6,2.5,8.1,4.6c2,1.5,4.1,3.6,5.6,6.1c1.5,2.5,2.5,4.6,3.1,7.1l-13.7,4.6c-0.5-2.5-2-4.6-4.1-6.6
		C194.7,114.7,191.7,113.7,188.1,113.7z M259.8,116.7c-1.5-0.5-3.1-0.5-4.6-0.5c-2,0-4.1,0.5-5.6,1c-2,0.5-3.6,1.5-4.6,2.5
		c-1.5,1-2.5,3.1-3.1,5.1c-1,2-1,4.6-1,7.6v25.9h-15.8v-57h15.3v8.6c1-2,2-3.6,3.6-4.6c1.5-1,3.1-2,4.6-2.5c1.5-0.5,3.1-1,4.6-1
		c1.5,0,3.1-0.5,4.1-0.5c0.5,0,1,0,2,0c0.5,0,1,0,2,0v15.3H259.8z M293.9,146.2c2,0,3.6-0.5,5.6-1c2-0.5,3.6-1.5,4.6-3.1
		c1.5-1.5,2.5-3.1,3.1-5.1c1-2,1-4.6,1-7.1c0-2.5-0.5-5.1-1-7.1s-2-3.6-3.1-5.1c-1.5-1.5-3.1-2.5-4.6-3.1c-1.5-0.5-3.6-1-5.6-1
		s-3.6,0.5-5.6,1c-2,0.5-3.6,1.5-4.6,3.1c-1.5,1.5-2.5,3.1-3.1,5.1c-0.5,2-1,4.1-1,7.1c0,2.5,0.5,5.1,1,7.1c1,2,2,3.6,3.1,5.1
		c1.5,1.5,3.1,2.5,4.6,3.1C290.4,145.7,292.4,146.2,293.9,146.2z M293.9,99.9c4.1,0,8.1,0.5,12.2,2c3.6,1.5,7.1,3.6,9.7,6.1
		c2.5,2.5,4.6,5.6,6.1,9.7c1.5,3.6,2,7.6,2,12.2c0,4.6-0.5,8.6-2,12.2c-1.5,3.6-3.6,6.6-6.1,9.7c-2.5,2.5-6.1,4.6-9.7,6.1
		c-3.6,1.5-7.6,2-12.2,2c-4.1,0-8.1-0.5-12.2-2c-3.6-1.5-7.1-3.6-9.7-6.1c-2.5-2.5-4.6-6.1-6.1-9.7c-1.5-3.6-2-7.6-2-12.2
		c0-4.6,0.5-8.6,2-12.2c1.5-3.6,3.6-7.1,6.1-9.7c2.5-2.5,6.1-4.6,9.7-6.1C285.8,100.4,289.9,99.9,293.9,99.9z M382.4,101.4
		l12.2,36.6l10.7-36.6h15.3l-17.8,57H387l-13.2-38.7l-13.2,38.7h-15.8l-18.3-57h16.3l10.7,36.6l12.7-36.6H382.4z M482.2,147.7
		c0,2,0,4.1,0,5.6c0,2,0,3.6,0.5,4.6h-14.8c0-0.5-0.5-1.5-0.5-2.5s0-2.5,0-3.6c-1.5,2-3.6,4.1-6.1,5.6c-2.5,1.5-6.1,2.5-10.2,2.5
		c-4.1,0-8.1-0.5-11.2-2c-3.6-1.5-6.6-3.6-8.6-6.1c-2.5-2.5-4.6-5.6-5.6-9.7c-1.5-3.6-2-7.6-2-12.2c0-4.1,0.5-8.1,2-11.7
		c1.5-3.6,3.1-6.6,5.6-9.7c2.5-2.5,5.1-4.6,8.6-6.1c2.5-1.5,6.6-2.5,10.7-2.5c2.5,0,4.6,0,6.6,0.5c2,0.5,3.6,1,4.6,1.5
		c1,0.5,2.5,1.5,3.1,2c1,1,1.5,1.5,2,2.5V74.5h15.3C482.2,74.5,482.2,147.7,482.2,147.7z M438.4,129.9c0,5.1,1.5,9.2,4.1,11.7
		c2.5,3.1,6.1,4.1,10.2,4.1c4.1,0,7.1-1.5,10.2-4.1c2.5-3.1,4.1-6.6,4.1-12.2c0-5.1-1.5-9.2-4.1-11.7c-2.5-2.5-6.1-4.1-10.2-4.1
		c-4.1,0-7.1,1.5-10.2,4.1C439.9,120.8,438.4,124.8,438.4,129.9z"/>
	<path class="st1" d="M91.4,139.1H58.4l-6.6,18.3H34.5L66,76.5h18.8l31.5,80.9H99.1L91.4,139.1z M63.5,124.8h22.9L75.2,94.3
		L63.5,124.8z M125,157.9V76.5h16.3v80.9L125,157.9L125,157.9z"/>
	<g>
		<ellipse class="st2" cx="582.5" cy="163.6" rx="21.1" ry="9.2"/>
		<path class="st2" d="M543.5,122.4l1,23c0,0,1,2.2,2.8,2.7c1.8,0.4,13.6,3.1,13.6,3.1l17.4-1.8l20.1,4l21.4-7.4
			c0,0,3-15.6,2.5-16.1c-0.4-0.4-2.7-6.1-8.2-5.8c-5.5,0.3-24.6,0-32.4,0.1c-7.9,0.1-9.4-1-23.2-1.3
			C544.7,122.7,543.5,122.4,543.5,122.4z"/>
		<g>
			<g>
				<path class="st1" d="M642.1,151l-14-22.4c5.7-3.1,9.9-12,10.9-14.6c0.5-0.5,0.5-1.5-0.5-1.5l-13-17.2c-0.5-1.1-2.6-0.5-2.6,0.5
					c-2.1,5.7-6.2,11.5-6.2,11.5l-1.5-2.6c4.2-4.7,4.2-14.6,4.2-14.6c-0.5-19.8-10.9-26.6-19.8-28.7c-2.6-0.5-4.7,2.6-2.6,4.7
					c2.6,2.6,5.2,5.2,5.2,5.2c7.3,10.9,3.1,20.3,3.1,20.3c-1.5-2.6-6.2-5.2-13.6-8.3c-7.3-2.6-10.9-10.9-10.9-10.9
					s-3.6,7.3-10.9,10.9c-7.3,2.6-12,5.7-13.6,8.3c0,0-4.2-8.9,3.1-20.3c0,0,1.5-2.1,4.2-4.7c2.1-2.1,0-5.2-2.6-4.7
					c-8.9,2.6-19.8,9.9-19.8,28.7c0,0,0,9.9,4.2,14.6l-1.5,2.6c0,0-4.2-6.2-6.2-11.5c-0.5-1.5-2.1-1.5-2.6-0.5l-13,17.2
					c-0.5,0.5-0.5,1.1-0.5,1.5c1.5,2.6,5.7,12,10.9,14.6l-14,22.4c0,0-3.1,4.7-1.5,6.8c1.5,1.5,5.2,1.5,5.2,1.5s17.2-4.2,22.4-4.2
					c0,0,6.2,26,33.3,26h4.2c27.6,0,33.3-26,33.3-26c5.2,0,22.4,4.2,22.4,4.2s3.6,0.5,5.2-1.5C645.2,155.7,642.1,151,642.1,151
					 M596.8,165.1c-5.2,2.6-10.4,3.6-16.1,3.6c-5.2,0-10.4-1.1-15.1-3.1c-2.1-0.5-2.6-3.1-1.5-5.2c0.5-2.1,3.1-2.6,5.2-1.5
					c7.8,3.6,17.2,3.6,24.5-0.5c1.5-1.1,4.2,0,5.2,1.5C599.4,161.4,598.4,164.1,596.8,165.1 M599.4,148.9c-4.2,0-8.3-1.5-10.9-4.2
					c-1.5-1.5-4.7-2.6-7.3-2.6c-2.6,0-5.7,1.1-7.3,3.1c-2.6,2.6-6.8,4.2-10.4,4.2c-8.9,0-16.1-7.3-16.1-16.1v-2.6
					c0,0,14.6-4.2,34.4-4.2s34.4,4.2,34.4,4.2v2.1C615,141.7,607.7,148.9,599.4,148.9"/>
				<path class="st1" d="M558.8,134.4l8.3,2.6c1.1,0.5,1.5,1.5,1.5,2.6c-0.5,1.1-1.5,1.5-2.6,1.5l-8.3-2.6c-1.1-0.5-1.5-1.5-1.5-2.6
					C556.2,134.9,557.8,133.8,558.8,134.4z M602,134.4l-8.3,2.6c-1.1,0.5-1.5,1.5-1.5,2.6c0.5,1.1,1.5,1.5,2.6,1.5l8.3-2.6
					c1.1-0.5,1.5-1.5,1.5-2.6C604.1,134.4,603,133.8,602,134.4z"/>
			</g>
		</g>
		<linearGradient id="SVGID_2_" gradientUnits="userSpaceOnUse" x1="539.6046" y1="145.0883" x2="657.9478" y2="12.4726">
			<stop  offset="0" style="stop-color:#F0524D"/>
			<stop  offset="1" style="stop-color:#D53E44"/>
		</linearGradient>
		<path style="fill:url(#SVGID_2_);" d="M658.9,80.5c0,0.1-0.2-1.4-0.2-1.5c-0.1-0.5-0.2-1-0.3-1.6c-0.2-1.2-0.4-2.3-0.7-3.5
			c-0.5-2.2-1-4.4-1.7-6.6c-0.7-2.4-1.5-4.9-2.4-7.2c-0.2-0.5-0.4-1.1-0.6-1.6c-0.1-0.1-0.1-0.2-0.2-0.4c-0.4-1-0.9-1.9-1.4-2.9
			c-1.2-2.3-2.4-4.6-3.9-6.7c-0.6-0.8-1.2-1.7-1.7-2.5c1,1.4-0.9-1.1-1.3-1.5c-0.9-1-1.9-2-2.9-2.9c-0.5-0.5-1-0.9-1.5-1.3
			c-0.1-0.1-0.3-0.3-0.5-0.4c-1.6-1.2-3.4-2.3-5.2-3.3c-2-1.1-4.1-2.2-6.2-3.1c0,0-1.7-0.7-2.1-0.8c-1.1-0.4-2.3-0.8-3.4-1.3
			c0,0-0.1,0-0.1,0c-3.4-1.2-7.1-1.5-10.7-0.9c-16.8,2.7-23.9-0.7-43.2,3.9c-5.4,1.3-26,15.8-29.6,20.4c-3.8,4.9-3.8,11.8-6.2,17.3
			c-5.6,12.8,7.1,36,7.1,36s1.5,3.6,4.2,3.3c2.7-0.3,5.4-5.9,9.8-9.2c4.5-3.3,7.9,3,26-0.9c13.3-2.8,19.5-1.4,23.8,7.2
			c1.9-0.8,4-1.1,6-0.6c6.2,1.5,12.1,4.1,17.8,6.8c2.2,1,3.4,3,3.9,5.2c3.3-1.8,6-4,7.5-5.7c4.5-5-6.3-13.8-11.6-26
			c-5.4-12.2,0.9-8.3-3.3-18.5c0,0,0,0,0,0c5.1-10.3,21.3-5.4,23.6-0.6c5,10.4,3.6,24.9,9.7,35.2c0.3-1.3,0.5-2.5,0.8-3.8
			c0.3-1.4,0.6-2.8,0.8-4.2c0.1-0.7,0.2-1.4,0.3-2.1c0-0.1,0-0.3,0-0.5C659.7,89.2,659.4,84.9,658.9,80.5z"/>
		<path class="st5" d="M529.3,103.2c0,0,2.4-2.7,2.9-2.5c4.6,1.4,27.9,8.1,47.7,6.4c22.1-2,56.9,14.6,50.9,19.6c0,0,4.2-3,8.2-12.5
			c0.8-1.9-25.4-16.5-36.1-15.6s-45-0.7-52.2-3.5c-7.1-2.8-17.8-4.4-17.8-4.4l1.7,5.3"/>
		<linearGradient id="SVGID_3_" gradientUnits="userSpaceOnUse" x1="549.4102" y1="131.5709" x2="617.4119" y2="83.3516">
			<stop  offset="0" style="stop-color:#FFFFFF"/>
			<stop  offset="1" style="stop-color:#DADADA"/>
		</linearGradient>
		<path class="st4" d="M529.3,103.2c0,0,2.4-2.7,2.9-2.5c4.6,1.4,27.9,8.1,47.7,6.4c22.1-2,56.9,14.6,50.9,19.6c0,0,4.2-3,8.2-12.5
			c0.8-1.9-25.4-16.5-36.1-15.6s-45-0.7-52.2-3.5c-7.1-2.8-17.8-4.4-17.8-4.4L529.3,103.2"/>
		
			<linearGradient id="SVGID_4_" gradientUnits="userSpaceOnUse" x1="555.4315" y1="-358.0658" x2="574.8966" y2="-358.0658" gradientTransform="matrix(0.9112 0.4136 -0.4133 0.9106 -5.4709 196.1039)">
			<stop  offset="0" style="stop-color:#F2F2F2"/>
			<stop  offset="1" style="stop-color:#DADADA"/>
		</linearGradient>
		<path class="st6" d="M666.4,107c-0.9,5.6-7.2,6.2-12.8,5.7c-5.3-0.5-7.4-7.8-5-12.9c2.3-5.1,7.7-7.6,12.8-5.3
			C666.6,96.9,667.5,100.5,666.4,107z"/>
	</g>
</g>
</svg>
