<?xml version="1.0" encoding="utf-8"?>
<svg width="439" height="160" viewBox="133.318 0 170.598 160.373" xmlns="http://www.w3.org/2000/svg">
  <g fill="none" transform="translate(.236)">
    <g fill="#F0524D" transform="translate(133.764)">
      <path d="M167.144382,119.540752 L148.347523,89.9493544 C155.79853,85.6482791 161.556127,74.1213974 162.910855,70.3364511 C163.418878,69.3041931 163.418878,68.443978 162.402832,67.927849 L144.960701,45.3902146 C143.944655,44.0138705 141.743221,44.3579565 141.235198,45.9063436 C138.3564,53.4762361 132.768144,61.2181716 132.768144,61.2181716 L130.905393,57.4332253 C136.154966,51.239677 136.493648,38.3364511 136.493648,38.3364511 C135.985625,12.0138705 121.930316,2.89559093 110.076441,0.14290276 C106.350937,-0.889355304 103.980162,3.927849 106.85896,6.33645115 C110.584464,9.60526835 113.463262,13.0461286 113.463262,13.0461286 C123.285044,27.8418275 117.696789,39.8848382 117.696789,39.8848382 C115.834037,36.616021 109.737759,32.6590318 99.7466352,28.8740856 C89.9248531,25.0891393 85.1833031,14.5945157 85.1833031,14.5945157 L85.1833031,14.5945157 C85.1833031,14.5945157 80.441753,24.5730103 70.6199709,28.8740856 C60.7981887,32.6590318 54.532569,36.443978 52.6698172,39.8848382 C52.6698172,39.8848382 47.0815618,28.0138705 56.903344,13.0461286 C56.903344,13.0461286 59.274119,10.1213974 62.4915994,6.85258018 C65.3703976,3.927849 62.4915994,-0.373226272 59.274119,0.659031792 C47.420244,3.927849 33.364935,13.5622576 33.364935,38.5084942 C33.364935,38.5084942 33.364935,51.41172 38.9531904,57.6052684 L37.0904386,61.3902146 C37.0904386,61.3902146 31.5021832,53.3041931 28.623385,46.0783866 C28.1153618,44.1859135 25.7445868,44.1859135 24.8978814,45.5622576 L7.45575099,68.099892 C6.94772777,68.616021 6.94772777,69.4762361 6.94772777,70.5084942 C8.81047957,74.2934404 14.3987349,86.3364511 21.51106,90.1213974 L2.71420097,119.712795 C2.71420097,119.712795 -1.51932583,125.906344 0.85144918,128.831075 C3.22222419,131.239677 7.96377421,130.723548 7.96377421,130.723548 C7.96377421,130.723548 30.99416,125.046129 37.5984618,125.390215 C37.5984618,125.390215 45.5574922,159.798817 81.7964816,159.798817 L87.384737,159.798817 C123.623726,159.798817 131.582757,125.390215 131.582757,125.390215 C138.187059,125.390215 161.217444,130.723548 161.217444,130.723548 C161.217444,130.723548 165.958994,131.755806 168.329769,128.831075 C171.377909,125.734301 167.144382,119.540752 167.144382,119.540752 M65.5680694,132.241298 C72.1723712,128.972481 79.2846962,127.424094 86.7357034,127.424094 C93.8480284,127.424094 100.791012,128.800438 107.056632,131.725169 C109.93543,132.757427 110.782136,136.026244 109.427407,138.950976 C108.411361,141.875707 105.19388,142.735922 102.315082,141.359578 C91.9852766,136.542373 79.7927194,136.542373 69.8015962,141.875707 C67.4308212,143.252051 64.2133408,141.875707 62.6892711,139.467105 C61.6732247,137.058502 63.1972944,133.617642 65.5680694,132.241298 M110.753805,116.616021 C105.16555,116.616021 99.9159763,114.207419 96.1904727,110.938602 L96.1904727,110.938602 C93.8196977,108.53 90.0941941,107.153655 86.3686906,107.153655 C82.643187,107.153655 78.9176834,108.53 76.5469084,111.454731 L76.5469084,111.454731 C72.8214048,114.723548 67.5718316,117.13215 62.4915994,117.13215 C50.6377244,117.13215 41.3239654,107.497741 41.3239654,95.6267737 L41.3239654,92.3579565 C41.3239654,92.3579565 60.6288476,87.0246232 87.0460548,87.0246232 C113.463262,87.0246232 132.260121,92.7020425 132.260121,92.7020425 L132.260121,95.6267737 C131.413416,106.981612 121.930316,116.616021 110.753805,116.616021"/>
      <path d="M54.6891431,98.6151902 L68.6232503,98.6151902 C69.4516774,98.6151902 70.1232503,99.2867631 70.1232503,100.11519 L70.1232503,102.276481 C70.1232503,103.104908 69.4516774,103.776481 68.6232503,103.776481 L54.6891431,103.776481 C53.8607159,103.776481 53.1891431,103.104908 53.1891431,102.276481 L53.1891431,100.11519 C53.1891431,99.2867631 53.8607159,98.6151902 54.6891431,98.6151902 Z" transform="rotate(-15 61.656 101.196)"/>
      <path d="M102.104643,98.6151902 L116.03875,98.6151902 C116.867178,98.6151902 117.53875,99.2867631 117.53875,100.11519 L117.53875,102.276481 C117.53875,103.104908 116.867178,103.776481 116.03875,103.776481 L102.104643,103.776481 C101.276216,103.776481 100.604643,103.104908 100.604643,102.276481 L100.604643,100.11519 C100.604643,99.2867631 101.276216,98.6151902 102.104643,98.6151902 Z" transform="scale(-1 1) rotate(-15 0 929.678)"/>
    </g>
  </g>
</svg>