<svg xmlns="http://www.w3.org/2000/svg" width="126" height="24" viewBox="0 0 126 24">
  <g fill="none">
    <path fill="#FFF" d="M32.1368313,11.7200319 C31.7245357,11.7200319 31.3399965,11.7905832 30.9832022,11.9316879 C30.6264079,12.0727926 30.3132265,12.280527 30.0436485,12.5548973 C29.7740706,12.8292676 29.5599973,13.1702655 29.401422,13.5779013 C29.2428468,13.9855372 29.1635603,14.4480401 29.1635603,14.9654241 C29.1635603,15.482808 29.2428468,15.945311 29.401422,16.3529468 C29.5599973,16.7605827 29.7780349,17.1055001 30.0555416,17.3877096 C30.3330483,17.669919 30.650194,17.8815729 31.0069883,18.0226776 C31.3637826,18.1637823 31.7483218,18.2343336 32.1606175,18.2343336 C32.5570556,18.2343336 32.9098802,18.1755409 33.2191019,18.0579536 C33.5283237,17.9403663 33.7939332,17.7875052 34.0159386,17.5993656 C34.2379439,17.411226 34.4163384,17.1995721 34.5511273,16.9643975 C34.6859163,16.729223 34.7850243,16.5018911 34.8484544,16.2823948 L37.6314361,17.1995709 C37.5045759,17.6855982 37.2944668,18.1598597 37.0011026,18.6223696 C36.7077384,19.0848795 36.3311279,19.5003483 35.8712597,19.8687884 C35.4113915,20.2372285 34.8722437,20.5351117 34.2538002,20.7624471 C33.6353568,20.9897825 32.9376362,21.1034484 32.1606175,21.1034484 C31.3043112,21.1034484 30.4995539,20.9505873 29.7463214,20.6448604 C28.993089,20.3391335 28.3389759,19.9119062 27.7839626,19.3631657 C27.2289492,18.8144251 26.7928738,18.1677049 26.4757234,17.4229856 C26.1585729,16.6782662 26,15.8590873 26,14.9654241 C26,14.0717609 26.1546085,13.2486624 26.4638303,12.496104 C26.773052,11.7435455 27.2011987,11.0968252 27.7482833,10.5559238 C28.2953679,10.0150224 28.937588,9.59171464 29.6749629,9.28598776 C30.4123378,8.98026088 31.2091665,8.82739973 32.0654728,8.82739973 C32.858349,8.82739973 33.5679626,8.94106571 34.1943348,9.16840109 C34.820707,9.39573646 35.3638191,9.6897002 35.8236873,10.0503011 C36.2835555,10.4109021 36.6562018,10.8263708 36.9416372,11.2967199 C37.2270727,11.7670689 37.4332174,12.24525 37.5600776,12.7312773 L34.7295236,13.6719707 C34.5868059,13.1859433 34.3132677,12.7391184 33.9089008,12.3314826 C33.5045339,11.9238468 32.91385,11.7200319 32.1368313,11.7200319 Z M46.7323896,12.2844479 C46.4152391,12.2217347 46.0980934,12.1903786 45.7809429,12.1903786 C45.3686473,12.1903786 44.9801437,12.2452518 44.6154207,12.3549999 C44.2506976,12.464748 43.9335519,12.6450458 43.663974,12.8958986 C43.3943961,13.1467515 43.1763584,13.4799104 43.0098544,13.8953854 C42.8433503,14.3108604 42.7600996,14.8321561 42.7600996,15.4592881 L42.7600996,20.7506884 L39.5965393,20.7506884 L39.5965393,9.18015975 L42.6649549,9.18015975 L42.6649549,10.8969252 C42.8393877,10.5206459 43.065354,10.2110041 43.3428607,9.96799047 C43.6203674,9.72497679 43.9137272,9.54075951 44.2229489,9.4153331 C44.5321706,9.28990669 44.8413877,9.20367732 45.1506095,9.15664242 C45.4598312,9.10960752 45.741298,9.08609042 45.9950184,9.08609042 C46.1218786,9.08609042 46.2447726,9.09000993 46.363704,9.09784908 C46.4826355,9.10568823 46.6055294,9.11744678 46.7323896,9.13312508 L46.7323896,12.2844479 L46.7323896,12.2844479 Z M53.7401604,18.2578509 C54.120741,18.2578509 54.4933872,18.1872997 54.8581103,18.0461949 C55.2228333,17.9050902 55.5399791,17.6973558 55.809557,17.4229856 C56.0791349,17.1486153 56.2971726,16.8076173 56.4636766,16.3999815 C56.6301806,15.9923457 56.7134314,15.5141646 56.7134314,14.9654241 C56.7134314,14.4166835 56.6301806,13.9385025 56.4636766,13.5308667 C56.2971726,13.1232308 56.0791349,12.7822329 55.809557,12.5078626 C55.5399791,12.2334923 55.2228333,12.025758 54.8581103,11.8846532 C54.4933872,11.7435485 54.120741,11.6729972 53.7401604,11.6729972 C53.3595798,11.6729972 52.9869336,11.7435485 52.6222105,11.8846532 C52.2574874,12.025758 51.9403417,12.2334923 51.6707638,12.5078626 C51.4011859,12.7822329 51.1831482,13.1232308 51.0166442,13.5308667 C50.8501402,13.9385025 50.7668894,14.4166835 50.7668894,14.9654241 C50.7668894,15.5141646 50.8501402,15.9923457 51.0166442,16.3999815 C51.1831482,16.8076173 51.4011859,17.1486153 51.6707638,17.4229856 C51.9403417,17.6973558 52.2574874,17.9050902 52.6222105,18.0461949 C52.9869336,18.1872997 53.3595798,18.2578509 53.7401604,18.2578509 Z M53.7401604,8.82739973 C54.6123242,8.82739973 55.4250102,8.98026088 56.1782426,9.28598776 C56.931475,9.59171464 57.5816238,10.0150224 58.1287084,10.5559238 C58.675793,11.0968252 59.1039397,11.7435455 59.4131614,12.496104 C59.7223832,13.2486624 59.8769917,14.0717609 59.8769917,14.9654241 C59.8769917,15.8590873 59.7223832,16.6782662 59.4131614,17.4229856 C59.1039397,18.1677049 58.675793,18.8144251 58.1287084,19.3631657 C57.5816238,19.9119062 56.931475,20.3391335 56.1782426,20.6448604 C55.4250102,20.9505873 54.6123242,21.1034484 53.7401604,21.1034484 C52.8679965,21.1034484 52.0553106,20.9505873 51.3020782,20.6448604 C50.5488458,20.3391335 49.898697,19.9119062 49.3516124,19.3631657 C48.8045278,18.8144251 48.3763811,18.1677049 48.0671594,17.4229856 C47.7579376,16.6782662 47.6033291,15.8590873 47.6033291,14.9654241 C47.6033291,14.0717609 47.7579376,13.2486624 48.0671594,12.496104 C48.3763811,11.7435455 48.8045278,11.0968252 49.3516124,10.5559238 C49.898697,10.0150224 50.5488458,9.59171464 51.3020782,9.28598776 C52.0553106,8.98026088 52.8679965,8.82739973 53.7401604,8.82739973 L53.7401604,8.82739973 Z M71.6657822,9.18015975 L74.187116,16.6351549 L76.3516573,9.18015975 L79.4914314,9.18015975 L75.8283616,20.7506884 L72.6648013,20.7506884 L69.929392,12.848864 L67.241555,20.7506884 L64.0304223,20.7506884 L60.295994,9.18015975 L63.6260575,9.18015975 L65.7905987,16.6116375 L68.3357187,9.18015975 L71.6657822,9.18015975 Z M91.9462346,18.6576456 C91.9462346,19.0496032 91.9541633,19.4376353 91.9700208,19.8217537 C91.9858783,20.2058721 92.0096643,20.5155139 92.0413793,20.7506884 L89.020536,20.7506884 C88.9888209,20.625262 88.9610707,20.4371252 88.9372844,20.1862724 C88.9134981,19.9354196 88.9016052,19.6767315 88.9016052,19.4102003 C88.6320272,19.8648711 88.2157735,20.2489837 87.6528313,20.5625498 C87.0898892,20.8761158 86.4119902,21.0328964 85.619114,21.0328964 C84.7786652,21.0328964 84.0095868,20.8800353 83.3118557,20.5743084 C82.6141246,20.2685815 82.0155121,19.8452737 81.516,19.3043723 C81.016488,18.7634709 80.6240202,18.1206702 80.3385847,17.3759509 C80.0531493,16.6312316 79.9104337,15.8198916 79.9104337,14.9419068 C79.9104337,14.0952785 80.049185,13.3035361 80.3266916,12.5666559 C80.6041983,11.8297758 80.9887375,11.1908946 81.4803208,10.6499932 C81.971904,10.1090918 82.562588,9.68186446 83.2523903,9.36829843 C83.9421926,9.0547324 84.699378,8.89795174 85.5239693,8.89795174 C86.0314101,8.89795174 86.4714498,8.94498594 86.8441016,9.03905575 C87.2167535,9.13312556 87.5378635,9.25071105 87.8074414,9.39181577 C88.0770193,9.53292048 88.295057,9.68578163 88.461561,9.85040379 C88.6280651,10.015026 88.750959,10.1757261 88.8302466,10.3325091 L88.8302466,3.7241381 L91.9462346,3.7241381 L91.9462346,18.6576456 L91.9462346,18.6576456 Z M83.0977802,14.9419068 C83.0977802,15.9766747 83.3713184,16.7840951 83.918403,17.3641922 C84.4654876,17.9442894 85.1592439,18.2343336 85.9996927,18.2343336 C86.8084264,18.2343336 87.4902898,17.9442894 88.0453031,17.3641922 C88.6003165,16.7840951 88.877819,15.9688356 88.877819,14.9183894 C88.877819,13.8836215 88.6003165,13.0879597 88.0453031,12.53138 C87.4902898,11.9748003 86.8084264,11.6965146 85.9996927,11.6965146 C85.1909589,11.6965146 84.5051313,11.9787198 83.9421892,12.5431386 C83.379247,13.1075575 83.0977802,13.9071389 83.0977802,14.9419068 L83.0977802,14.9419068 Z"/>
    <path fill="#F0524D" d="M12.5336258,16.8758136 L5.71535325,16.8758136 L4.31855436,20.648276 L0.86206896,20.648276 L7.3015486,4.1379312 L11.0894778,4.1379312 L17.4816083,20.648276 L13.9304247,20.648276 L12.5336258,16.8758136 Z M6.80438289,13.9416762 L11.4445962,13.9416762 L9.12448952,7.70081239 L6.80438289,13.9416762 Z M19.2717689,20.648276 L19.2717689,4.1379312 L22.5862069,4.1379312 L22.5862069,20.648276 L19.2717689,20.648276 Z"/>
    <g fill="#F0524D" transform="translate(100)">
      <path d="M25.2216573,17.9311128 L22.4021284,13.4924032 C23.5197795,12.8472419 24.383419,11.1182096 24.5866283,10.5504677 C24.6628318,10.395629 24.6628318,10.2665967 24.5104248,10.1891773 L21.8941052,6.80853219 C21.7416983,6.60208058 21.4114832,6.65369348 21.3352797,6.88595154 C20.90346,8.02143541 20.0652216,9.18272574 20.0652216,9.18272574 L19.7858089,8.6149838 C20.5732449,7.68595154 20.6240472,5.75046767 20.6240472,5.75046767 C20.5478437,1.80208058 18.4395474,0.43433864 16.6614661,0.02143541 C16.1026406,-0.13340329 15.7470243,0.58917735 16.178844,0.95046767 C16.7376696,1.44079025 17.1694893,1.95691928 17.1694893,1.95691928 C18.6427566,4.17627412 17.8045183,5.98272574 17.8045183,5.98272574 C17.5251056,5.49240316 16.6106638,4.89885477 15.1119953,4.33111283 C13.638728,3.7633709 12.9274955,2.18917735 12.9274955,2.18917735 C12.9274955,2.18917735 12.216263,3.68595154 10.7429956,4.33111283 C9.2697283,4.89885477 8.32988535,5.4665967 8.05047258,5.98272574 C8.05047258,5.98272574 7.21223428,4.20208058 8.6855016,1.95691928 C8.6855016,1.95691928 9.04111785,1.51820961 9.52373991,1.02788703 C9.95555964,0.58917735 9.52373991,-0.05598394 9.04111785,0.09885477 C7.2630366,0.58917735 5.15474025,2.03433864 5.15474025,5.77627412 C5.15474025,5.77627412 5.15474025,7.71175799 5.99297856,8.64079025 L5.71356579,9.20853219 C5.71356579,9.20853219 4.87532748,7.99562896 4.44350775,6.91175799 C4.36730427,6.62788703 4.01168802,6.62788703 3.88468221,6.83433864 L1.26836265,10.2149838 C1.19215917,10.2924032 1.19215917,10.4214354 1.19215917,10.5762741 C1.47157193,11.1440161 2.30981024,12.9504677 3.376659,13.5182096 L0.55713015,17.9569193 C0.55713015,17.9569193 -0.07789887,18.8859515 0.27771738,19.3246612 C0.63333363,19.6859515 1.34456613,19.6085322 1.34456613,19.6085322 C1.34456613,19.6085322 4.799124,18.7569193 5.78976927,18.8085322 C5.78976927,18.8085322 6.98362383,23.9698225 12.4194722,23.9698225 L13.2577105,23.9698225 C18.693559,23.9698225 19.8874135,18.8085322 19.8874135,18.8085322 C20.8780588,18.8085322 24.3326167,19.6085322 24.3326167,19.6085322 C24.3326167,19.6085322 25.0438492,19.7633709 25.3994654,19.3246612 C25.8566863,18.8601451 25.2216573,17.9311128 25.2216573,17.9311128 M16.178844,20.6407903 C15.1881988,21.1311128 14.12135,21.3633709 13.0036989,21.3633709 C11.9368502,21.3633709 10.8954026,21.1569193 9.95555964,20.7182096 C9.52373991,20.5633709 9.39673411,20.0730483 9.59994339,19.6343386 C9.75235036,19.195629 10.2349724,19.0665967 10.6667921,19.2730483 C12.216263,19.995629 14.0451465,19.995629 15.543815,19.195629 C15.8994313,18.9891773 16.3820533,19.195629 16.6106638,19.5569193 C16.7630707,19.9182096 16.5344603,20.4343386 16.178844,20.6407903 M16.7630707,17.4924032 C15.9248324,17.4924032 15.1373964,17.1311128 14.5785709,16.6407903 C14.2229547,16.2794999 13.6641291,16.0730483 13.1053036,16.0730483 C12.546478,16.0730483 11.9876525,16.2794999 11.6320363,16.7182096 C11.0732107,17.2085322 10.2857747,17.5698225 9.52373991,17.5698225 C7.74565865,17.5698225 6.34859481,16.1246612 6.34859481,14.3440161 L6.34859481,13.8536935 C6.34859481,13.8536935 9.24432714,13.0536935 13.2069082,13.0536935 C17.1694893,13.0536935 19.9890182,13.9053064 19.9890182,13.9053064 L19.9890182,14.3440161 C19.8620124,16.0472419 18.4395474,17.4924032 16.7630707,17.4924032"/>
      <path d="M8.65637085,14.5638969 L10.3538846,15.0506511 C10.5593904,15.109579 10.6782153,15.3239449 10.6192875,15.5294507 C10.5603596,15.7349566 10.3459938,15.8537816 10.1404879,15.7948537 L8.4429742,15.3080995 C8.23746832,15.2491716 8.11864336,15.0348057 8.17757123,14.8292998 C8.23649908,14.623794 8.45086497,14.5049691 8.65637085,14.5638969 L8.65637085,14.5638969 Z M17.2528131,14.5638969 L15.5552994,15.0506511 C15.3497936,15.109579 15.2309686,15.3239449 15.2898964,15.5294507 C15.3488243,15.7349566 15.5631902,15.8537816 15.7686961,15.7948537 L17.4662097,15.3080995 C17.6717157,15.2491716 17.7905406,15.0348058 17.7316127,14.8292998 C17.6726849,14.623794 17.458319,14.5049691 17.2528131,14.5638969 Z"/>
    </g>
  </g>
</svg>
