<svg width="24" height="24" viewBox="0 0 24 24" fill="none" xmlns="http://www.w3.org/2000/svg">
<path d="M12.75 2.25C11.0918 2.25 9.75 3.5918 9.75 5.25H5.25V9C3.5918 9 2.25 10.3418 2.25 12C2.25 13.6582 3.5918 15 5.25 15V18.75H9.75C9.75 20.4082 11.0918 21.75 12.75 21.75C14.4082 21.75 15.75 20.4082 15.75 18.75H20.25V13.5H18.75C17.8564 13.5 17.25 12.8936 17.25 12C17.25 11.1064 17.8564 10.5 18.75 10.5H20.25V5.25H15.75C15.75 3.5918 14.4082 2.25 12.75 2.25ZM12.75 3.75C13.6436 3.75 14.25 4.35645 14.25 5.25V6.75H18.75V9C17.0918 9 15.75 10.3418 15.75 12C15.75 13.6582 17.0918 15 18.75 15V17.25H14.25V18.75C14.25 19.6436 13.6436 20.25 12.75 20.25C11.8564 20.25 11.25 19.6436 11.25 18.75V17.25H6.75V13.5H5.25C4.35645 13.5 3.75 12.8936 3.75 12C3.75 11.1064 4.35645 10.5 5.25 10.5H6.75V6.75H11.25V5.25C11.25 4.35645 11.8564 3.75 12.75 3.75Z" fill="#F0524D"/>
</svg>
