<svg width="24" height="24" viewBox="0 0 24 24" fill="none" xmlns="http://www.w3.org/2000/svg">
<path d="M12 3C7.03711 3 3 7.03711 3 12C3 16.9629 7.03711 21 12 21C16.9629 21 21 16.9629 21 12C21 7.03711 16.9629 3 12 3ZM12 4.5C13.4766 4.5 14.8477 4.93945 16.0078 5.67188L15.3984 5.74219L15.5391 7.24219L14.7422 6.89062L14.0859 7.45312L14.2031 9L15.8203 8.48438L17.8359 9.14062L17.3203 10.0781L16.1016 9.32812L14.7891 9.51562L13.5 10.4766L12.7734 12.7266L14.2266 13.9219C14.2266 13.9219 15.7178 13.6641 15.7969 13.6641C15.876 13.6641 16.4297 15.0234 16.4297 15.0234L15.2344 18.7734C14.2588 19.2393 13.1572 19.5 12 19.5C11.7627 19.5 11.5283 19.4736 11.2969 19.4531L10.4766 18.0234L11.2734 15.0234L8.25 12.75H5.46094L4.73438 11.2734L6.75 9.67969L9.75 8.25L9.30469 6.25781L10.5938 5.97656L11.2031 6.82031L13.4531 6.39844L13.0547 4.66406L11.3906 4.54688C11.5898 4.53223 11.7949 4.5 12 4.5ZM11.1562 4.54688L9.98438 5.03906L9.42188 4.94531C9.97559 4.74316 10.5498 4.61426 11.1562 4.54688ZM4.54688 12.5859L5.27344 13.4297V14.9766L6.67969 16.5234H7.54688L9.67969 19.1484C6.84961 18.2314 4.78418 15.668 4.54688 12.5859Z" fill="#F0524D"/>
</svg>
