<?xml version="1.0" standalone="no"?>
<!DOCTYPE svg PUBLIC "-//W3C//DTD SVG 20010904//EN"
 "http://www.w3.org/TR/2001/REC-SVG-20010904/DTD/svg10.dtd">
<svg version="1.0" xmlns="http://www.w3.org/2000/svg"
 width="832.000000pt" height="832.000000pt" viewBox="0 0 832.000000 832.000000"
 preserveAspectRatio="xMidYMid meet">
<metadata>
Created by potrace 1.11, written by Peter Selinger 2001-2013
</metadata>
<g transform="translate(0.000000,832.000000) scale(0.100000,-0.100000)"
fill="#000000" stroke="none">
<path d="M5235 7993 c-86 -24 -145 -156 -105 -235 7 -12 71 -82 144 -153 219
-217 242 -247 334 -431 152 -303 201 -634 137 -931 -12 -57 -15 -68 -26 -102
-17 -53 -19 -54 -42 -24 -49 66 -252 233 -283 233 -4 0 -15 6 -23 14 -28 25
-270 142 -416 201 -252 102 -362 168 -492 293 -118 113 -199 217 -291 374
l-39 67 -17 -36 c-47 -98 -195 -291 -299 -390 -135 -129 -271 -214 -467 -293
-378 -153 -635 -310 -752 -459 l-26 -34 -20 69 c-37 125 -44 178 -47 319 -3
128 0 165 31 343 12 71 78 252 130 356 84 166 128 227 302 414 113 122 117
126 130 175 23 82 -37 184 -119 205 -48 12 -102 0 -247 -53 -268 -101 -515
-271 -672 -464 -19 -24 -40 -48 -46 -55 -20 -22 -97 -142 -134 -211 -77 -141
-169 -405 -186 -532 -3 -26 -7 -50 -9 -53 -2 -3 -6 -34 -10 -70 -4 -36 -9 -69
-12 -73 -10 -17 -12 -404 -3 -487 24 -204 50 -320 107 -474 29 -77 95 -198
129 -235 l22 -24 -42 -88 c-22 -48 -44 -88 -48 -89 -9 0 -139 207 -220 350
-64 112 -151 290 -178 360 -27 72 -82 104 -139 80 -15 -6 -53 -43 -84 -83 -30
-40 -153 -198 -272 -352 -119 -154 -227 -293 -240 -310 -101 -128 -276 -357
-290 -379 -38 -57 -31 -95 38 -233 145 -289 292 -513 432 -658 34 -35 138
-120 173 -141 l32 -20 -168 -265 c-92 -145 -266 -419 -387 -609 -120 -190
-237 -374 -260 -410 -95 -148 -116 -182 -143 -237 -65 -129 -83 -244 -48 -311
36 -69 172 -121 306 -116 36 1 162 25 281 53 119 27 231 53 249 56 18 3 36 8
39 10 4 2 26 6 51 10 25 4 47 8 50 10 3 2 22 6 42 9 21 3 57 10 80 15 67 15
100 21 143 27 22 3 56 9 75 14 19 5 89 16 155 25 66 8 134 17 150 20 53 7 145
9 151 2 4 -3 25 -62 48 -129 174 -510 514 -952 935 -1212 115 -71 182 -104
321 -159 108 -42 315 -100 405 -112 23 -3 52 -7 65 -10 147 -28 844 -28 980 0
14 3 39 7 55 10 84 12 284 61 340 84 11 5 47 19 80 31 333 126 646 368 889
688 149 196 294 476 367 706 l34 108 90 -7 c50 -4 97 -8 105 -10 8 -1 38 -5
65 -9 28 -4 61 -10 75 -12 14 -2 41 -7 60 -10 29 -4 142 -25 225 -40 11 -2 79
-15 150 -29 72 -14 141 -28 155 -31 14 -3 75 -16 135 -29 61 -13 121 -26 135
-29 14 -2 64 -14 112 -25 135 -32 227 -41 278 -28 8 2 31 7 50 11 89 21 171
112 178 200 8 104 -34 213 -163 416 -38 61 -81 129 -95 150 -14 22 -151 238
-305 480 -390 614 -446 702 -443 704 257 164 521 514 683 906 34 84 34 105 -3
143 -16 18 -92 113 -168 212 -76 99 -144 187 -151 195 -6 8 -67 87 -135 175
-326 421 -401 516 -421 530 -28 19 -81 19 -112 -1 -14 -9 -37 -46 -56 -92 -63
-152 -165 -344 -280 -527 -76 -122 -106 -162 -112 -155 -2 3 -22 43 -45 89
l-41 85 35 48 c49 66 96 166 133 283 44 135 58 205 85 400 13 95 15 400 3 442
-3 10 -8 45 -12 78 -15 156 -69 373 -136 555 -27 71 -128 261 -179 335 -71
101 -202 240 -297 311 -43 33 -79 62 -81 67 -2 4 -7 7 -12 7 -4 0 -37 17 -71
38 -59 35 -85 48 -191 96 -38 17 -154 57 -223 76 -50 14 -124 20 -150 13z
m-710 -4178 c127 -3 246 -8 265 -10 19 -1 78 -6 130 -9 53 -4 111 -9 130 -11
18 -3 63 -7 99 -10 37 -3 75 -7 86 -9 11 -2 52 -7 90 -10 39 -4 77 -9 85 -11
8 -2 35 -6 60 -9 48 -6 199 -29 290 -45 30 -5 71 -12 90 -16 19 -3 69 -13 110
-21 41 -9 86 -18 100 -20 48 -9 275 -66 307 -77 l32 -11 -4 -106 c-2 -58 -8
-124 -14 -146 -5 -21 -12 -50 -14 -64 -14 -76 -79 -229 -137 -322 -259 -410
-705 -590 -1148 -462 -144 42 -312 135 -427 238 -124 112 -281 169 -460 170
-184 0 -316 -52 -450 -179 -145 -137 -357 -249 -537 -282 -56 -10 -279 -10
-343 0 -58 10 -174 47 -242 79 -207 96 -379 265 -483 475 -73 148 -106 296
-109 492 l-2 129 48 11 c26 6 57 14 68 16 45 11 353 74 385 79 19 3 46 8 60
11 13 2 88 14 165 25 77 12 151 23 165 25 14 2 50 6 80 10 30 3 71 8 90 10 77
10 108 14 175 19 39 4 88 8 110 11 37 4 131 11 260 20 28 2 156 7 285 11 129
3 236 7 237 8 2 2 35 1 368 -9z m672 -1966 c56 -27 121 -101 129 -147 4 -20 2
-63 -5 -94 -25 -123 -91 -193 -244 -258 -226 -96 -466 -156 -707 -177 -143
-12 -425 -6 -540 13 -233 37 -386 77 -560 149 -130 53 -163 75 -196 131 -54
93 -30 249 52 331 77 77 180 85 314 25 236 -107 473 -156 745 -156 262 0 501
53 725 161 52 25 111 49 130 52 42 8 100 -3 157 -30z"/>
<path d="M2681 3328 c-75 -37 -91 -136 -31 -193 23 -22 82 -43 322 -111 161
-46 305 -83 321 -82 42 3 93 51 105 97 14 56 -14 112 -66 134 -43 19 -469 143
-554 162 -52 11 -62 11 -97 -7z"/>
<path d="M5340 3287 c-113 -32 -241 -69 -285 -81 -44 -13 -90 -28 -102 -34
-69 -37 -85 -127 -33 -186 52 -59 68 -58 399 38 259 74 298 88 325 115 27 27
31 38 31 81 -1 43 -6 55 -31 81 -54 53 -75 52 -304 -14z"/>
</g>
</svg>
