<?xml version="1.0" encoding="utf-8"?>
<!-- Generator: Adobe Illustrator 21.0.1, SVG Export Plug-In . SVG Version: 6.00 Build 0)  -->
<svg version="1.1" id="Layer_1" xmlns="http://www.w3.org/2000/svg" xmlns:xlink="http://www.w3.org/1999/xlink" x="0px" y="0px"
	 viewBox="0 0 2492 479" style="enable-background:new 0 0 2492 479;" xml:space="preserve">
<style type="text/css">
	.st0{fill:#292C2D;}
	.st1{fill:#F0524D;}
</style>
<g>
	<path class="st0" d="M625,234.2c-8.2,0-15.9,1.4-23.1,4.2c-7.1,2.8-13.4,7-18.8,12.5c-5.4,5.5-9.7,12.3-12.8,20.4
		c-3.2,8.1-4.8,17.4-4.8,27.7s1.6,19.6,4.8,27.7c3.2,8.1,7.5,15,13.1,20.7c5.5,5.6,11.9,9.9,19,12.7s14.8,4.2,23.1,4.2
		c7.9,0,15-1.2,21.2-3.5c6.2-2.3,11.5-5.4,15.9-9.2s8-8,10.7-12.7s4.7-9.2,5.9-13.6l55.6,18.3c-2.5,9.7-6.7,19.2-12.6,28.4
		c-5.9,9.2-13.4,17.5-22.6,24.9c-9.2,7.4-20,13.3-32.3,17.9c-12.4,4.5-26.3,6.8-41.8,6.8c-17.1,0-33.2-3.1-48.2-9.2
		c-15.1-6.1-28.1-14.6-39.2-25.6s-19.8-23.9-26.1-38.8c-6.3-14.9-9.5-31.3-9.5-49.1c0-17.9,3.1-34.3,9.3-49.3
		c6.2-15,14.7-28,25.7-38.8c10.9-10.8,23.8-19.3,38.5-25.4s30.7-9.2,47.8-9.2c15.8,0,30,2.3,42.5,6.8c12.5,4.5,23.4,10.4,32.6,17.6
		c9.2,7.2,16.6,15.5,22.3,24.9c5.7,9.4,9.8,19,12.4,28.7l-56.6,18.8c-2.9-9.7-8.3-18.6-16.4-26.8C652.3,238.3,640.5,234.2,625,234.2
		z M916.6,245.5c-6.3-1.3-12.7-1.9-19-1.9c-8.2,0-16,1.1-23.3,3.3s-13.6,5.8-19,10.8c-5.4,5-9.7,11.7-13.1,20
		c-3.3,8.3-5,18.7-5,31.3v105.7H774V183.5h61.3v34.3c3.5-7.5,8-13.7,13.5-18.6c5.5-4.9,11.4-8.5,17.6-11c6.2-2.5,12.4-4.2,18.5-5.2
		c6.2-0.9,11.8-1.4,16.9-1.4c2.5,0,5,0.1,7.4,0.2c2.4,0.2,4.8,0.4,7.4,0.7C916.6,182.5,916.6,245.5,916.6,245.5z M1056.7,364.9
		c7.6,0,15.1-1.4,22.3-4.2c7.3-2.8,13.6-7,19-12.5c5.4-5.5,9.7-12.3,13.1-20.4c3.3-8.1,5-17.7,5-28.7s-1.7-20.5-5-28.7
		c-3.3-8.1-7.7-15-13.1-20.4c-5.4-5.5-11.7-9.6-19-12.5c-7.3-2.8-14.7-4.2-22.3-4.2s-15.1,1.4-22.3,4.2c-7.3,2.8-13.6,7-19,12.5
		s-9.7,12.3-13.1,20.4c-3.3,8.1-5,17.7-5,28.7s1.7,20.5,5,28.7c3.3,8.1,7.7,15,13.1,20.4c5.4,5.5,11.7,9.6,19,12.5
		C1041.6,363.4,1049.1,364.9,1056.7,364.9z M1056.7,176.4c17.4,0,33.7,3.1,48.7,9.2c15.1,6.1,28,14.6,39,25.4
		c10.9,10.8,19.5,23.7,25.7,38.8c6.2,15,9.3,31.5,9.3,49.3s-3.1,34.2-9.3,49.1s-14.7,27.8-25.7,38.8s-23.9,19.5-39,25.6
		c-15.1,6.1-31.3,9.2-48.7,9.2s-33.7-3.1-48.7-9.2c-15.1-6.1-28-14.6-39-25.6c-10.9-11-19.5-23.9-25.7-38.8
		c-6.2-14.9-9.3-31.3-9.3-49.1s3.1-34.3,9.3-49.3c6.2-15,14.7-28,25.7-38.8c10.9-10.8,23.9-19.3,39-25.4
		C1023,179.5,1039.3,176.4,1056.7,176.4z M1414.9,183.5l50.4,149l43.3-149h62.7l-73.2,231.2h-63.2l-54.7-157.9l-53.7,157.9h-64.2
		l-74.6-231.2h66.5l43.3,148.5l50.9-148.5C1348.4,183.5,1414.9,183.5,1414.9,183.5z M1820.2,372.8c0,7.8,0.2,15.6,0.5,23.3
		c0.3,7.7,0.8,13.9,1.4,18.6h-60.4c-0.6-2.5-1.2-6.3-1.7-11.3c-0.5-5-0.7-10.2-0.7-15.5c-5.4,9.1-13.7,16.8-25,23
		c-11.2,6.3-24.8,9.4-40.6,9.4c-16.8,0-32.2-3.1-46.1-9.2c-13.9-6.1-25.9-14.6-35.9-25.4c-10-10.8-17.8-23.7-23.5-38.5
		s-8.6-31.1-8.6-48.6c0-16.9,2.8-32.7,8.3-47.5c5.5-14.7,13.2-27.5,23.1-38.3c9.8-10.8,21.6-19.3,35.4-25.6
		c13.8-6.3,28.9-9.4,45.4-9.4c10.1,0,18.9,0.9,26.4,2.8c7.4,1.9,13.9,4.2,19.3,7s9.7,5.9,13.1,9.2c3.3,3.3,5.8,6.5,7.4,9.6V74.4
		h62.3C1820.2,74.4,1820.2,372.8,1820.2,372.8z M1643.4,298.6c0,20.7,5.5,36.8,16.4,48.4c10.9,11.6,24.8,17.4,41.6,17.4
		c16.2,0,29.8-5.8,40.9-17.4s16.6-27.9,16.6-48.9c0-20.7-5.5-36.6-16.6-47.7c-11.1-11.1-24.7-16.7-40.9-16.7
		c-16.2,0-29.9,5.6-41.1,16.9C1649,261.9,1643.4,277.9,1643.4,298.6z"/>
	<path class="st1" d="M233.2,337.2H97l-27.9,75.4H0L128.7,82.7h75.7l127.7,329.9h-71C261.2,412.6,233.2,337.2,233.2,337.2z
		 M118.7,278.6h92.7l-46.4-124.7C165.1,153.9,118.7,278.6,118.7,278.6z M367.9,412.6V82.7h66.2v329.9H367.9z"/>
	<g>
		<path class="st1" d="M2485.1,358.3l-56.3-88.7c22.3-12.9,39.6-47.4,43.7-58.8c1.5-3.1,1.5-5.7-1.5-7.2l-52.3-67.6
			c-3-4.1-9.6-3.1-11.2,1.5c-8.6,22.7-25.4,45.9-25.4,45.9l-5.6-11.3c15.7-18.6,16.8-57.2,16.8-57.2
			c-1.5-78.9-43.7-106.2-79.2-114.5c-11.2-3.1-18.3,11.3-9.6,18.6c11.2,9.8,19.8,20.1,19.8,20.1c29.4,44.4,12.7,80.4,12.7,80.4
			c-5.6-9.8-23.9-21.7-53.8-33c-29.4-11.3-43.7-42.8-43.7-42.8s-14.2,29.9-43.7,42.8c-29.4,11.3-48.2,22.7-53.8,33
			c0,0-16.8-35.6,12.7-80.4c0,0,7.1-8.8,16.8-18.6c8.6-8.8,0-21.7-9.6-18.6c-35.5,9.8-77.7,38.7-77.7,113.5c0,0,0,38.7,16.8,57.2
			l-5.6,11.3c0,0-16.8-24.2-25.4-45.9c-1.5-5.7-8.6-5.7-11.2-1.5l-52.3,67.6c-1.5,1.5-1.5,4.1-1.5,7.2c5.6,11.3,22.3,47.4,43.7,58.8
			l-56.3,88.7c0,0-12.7,18.6-5.6,27.3c7.1,7.2,21.3,5.7,21.3,5.7s69-17,88.8-16c0,0,23.9,103.1,132.5,103.1h16.8
			c108.6,0,132.5-103.1,132.5-103.1c19.8,0,88.8,16,88.8,16s14.2,3.1,21.3-5.7C2497.8,376.9,2485.1,358.3,2485.1,358.3
			 M2304.4,412.5c-19.8,9.8-41.1,14.4-63.5,14.4c-21.3,0-42.1-4.1-60.9-12.9c-8.6-3.1-11.2-12.9-7.1-21.7c3-8.8,12.7-11.3,21.3-7.2
			c31,14.4,67.5,14.4,97.5-1.5c7.1-4.1,16.8,0,21.3,7.2C2316.1,398,2311.5,408.3,2304.4,412.5 M2316.1,349.6
			c-16.8,0-32.5-7.2-43.7-17c-7.1-7.2-18.3-11.3-29.4-11.3c-11.2,0-22.3,4.1-29.4,12.9c-11.2,9.8-26.9,17-42.1,17
			c-35.5,0-63.5-28.9-63.5-64.5v-9.8c0,0,57.9-16,137.1-16c79.2,0,135.5,17,135.5,17v8.8C2378,320.7,2349.6,349.6,2316.1,349.6"/>
		<path class="st1" d="M2154.1,291l33.9,9.7c4.1,1.2,6.5,5.5,5.3,9.6c-1.2,4.1-5.5,6.5-9.6,5.3l-33.9-9.7c-4.1-1.2-6.5-5.5-5.3-9.6
			C2145.7,292.2,2150,289.9,2154.1,291z M2325.9,291l-33.9,9.7c-4.1,1.2-6.5,5.5-5.3,9.6c1.2,4.1,5.5,6.5,9.6,5.3l33.9-9.7
			c4.1-1.2,6.5-5.5,5.3-9.6C2334.3,292.2,2330,289.9,2325.9,291z"/>
	</g>
</g>
</svg>
