<svg width="16" height="16" viewBox="0 0 16 16" fill="none" xmlns="http://www.w3.org/2000/svg">
<path d="M6.48047 2L6.05433 2.05208C6.05433 2.05208 4.14311 2.26476 2.74751 3.40625H2.73047L2.71342 3.42361C2.40021 3.71658 2.26385 4.07682 2.04865 4.60417C1.83345 5.13151 1.60334 5.80425 1.40092 6.54861C0.996094 8.0395 0.667969 9.84505 0.667969 11.4965V11.6354L0.736151 11.7743C1.24112 12.6771 2.13814 13.2522 2.96911 13.6493C3.80007 14.0464 4.51811 14.2569 5.01456 14.2743L5.33842 14.2917L5.50888 13.9965L6.10547 12.9201C6.73828 13.0655 7.46698 13.1632 8.30433 13.1632C9.14169 13.1632 9.87038 13.0655 10.5032 12.9201L11.0998 13.9965L11.2702 14.2917L11.5941 14.2743C12.0906 14.2569 12.8086 14.0464 13.6396 13.6493C14.4705 13.2522 15.3675 12.6771 15.8725 11.7743L15.9407 11.6354V11.4965C15.9407 9.84505 15.6126 8.0395 15.2077 6.54861C15.0053 5.80425 14.7752 5.13151 14.56 4.60417C14.3448 4.07682 14.2085 3.71658 13.8952 3.42361L13.8782 3.40625H13.8612C12.4656 2.26476 10.5543 2.05208 10.5543 2.05208L10.1282 2L9.97479 2.39931C9.97479 2.39931 9.81712 2.80512 9.71911 3.26736C9.10121 3.18273 8.59624 3.16319 8.30433 3.16319C8.01243 3.16319 7.50746 3.18273 6.88956 3.26736C6.79155 2.80512 6.63388 2.39931 6.63388 2.39931L6.48047 2ZM5.73047 3.26736C5.75391 3.34549 5.77734 3.41276 5.79865 3.47569C5.0934 3.65365 4.34126 3.92491 3.65092 4.36111L4.23047 5.29861C5.64524 4.40451 7.67791 4.27431 8.30433 4.27431C8.93075 4.27431 10.9634 4.40451 12.3782 5.29861L12.9577 4.36111C12.2674 3.92491 11.5153 3.65365 10.81 3.47569C10.8313 3.41276 10.8548 3.34549 10.8782 3.26736C11.3874 3.37153 12.359 3.61024 13.1623 4.25694C13.158 4.25911 13.3668 4.58029 13.5543 5.03819C13.7461 5.50911 13.9592 6.13628 14.1509 6.84375C14.5195 8.20009 14.8093 9.85156 14.8327 11.3056C14.4897 11.8394 13.8526 12.3212 13.1793 12.6424C12.5913 12.9223 12.1268 13.0243 11.8498 13.0764L11.5771 12.6076C11.739 12.5469 11.8988 12.4796 12.0373 12.4167C12.8768 12.0412 13.3327 11.6354 13.3327 11.6354L12.6168 10.8021C12.6168 10.8021 12.31 11.0885 11.5941 11.4097C10.8782 11.7309 9.78516 12.0521 8.30433 12.0521C6.82351 12.0521 5.73047 11.7309 5.01456 11.4097C4.29865 11.0885 3.99183 10.8021 3.99183 10.8021L3.27592 11.6354C3.27592 11.6354 3.73189 12.0412 4.57138 12.4167C4.70987 12.4796 4.86967 12.5469 5.03161 12.6076L4.75888 13.0764C4.48189 13.0243 4.0174 12.9223 3.42933 12.6424C2.75604 12.3212 2.11896 11.8394 1.77592 11.3056C1.79936 9.85156 2.08913 8.20009 2.45774 6.84375C2.6495 6.13628 2.86257 5.50911 3.05433 5.03819C3.24183 4.58029 3.45064 4.25911 3.44638 4.25694C4.24965 3.61024 5.22124 3.37153 5.73047 3.26736ZM6.39524 7.05208C5.97337 7.05208 5.6005 7.29731 5.37251 7.60764C5.14453 7.91797 5.03161 8.29991 5.03161 8.71875C5.03161 9.13759 5.14453 9.51953 5.37251 9.82986C5.6005 10.1402 5.97337 10.3854 6.39524 10.3854C6.81712 10.3854 7.18999 10.1402 7.41797 9.82986C7.64595 9.51953 7.75888 9.13759 7.75888 8.71875C7.75888 8.29991 7.64595 7.91797 7.41797 7.60764C7.18999 7.29731 6.81712 7.05208 6.39524 7.05208ZM10.2134 7.05208C9.79155 7.05208 9.41868 7.29731 9.1907 7.60764C8.96271 7.91797 8.84979 8.29991 8.84979 8.71875C8.84979 9.13759 8.96271 9.51953 9.1907 9.82986C9.41868 10.1402 9.79155 10.3854 10.2134 10.3854C10.6353 10.3854 11.0082 10.1402 11.2362 9.82986C11.4641 9.51953 11.5771 9.13759 11.5771 8.71875C11.5771 8.29991 11.4641 7.91797 11.2362 7.60764C11.0082 7.29731 10.6353 7.05208 10.2134 7.05208ZM6.39524 8.16319C6.42507 8.16319 6.46342 8.17404 6.53161 8.26736C6.59979 8.36068 6.66797 8.52344 6.66797 8.71875C6.66797 8.91406 6.59979 9.07682 6.53161 9.17014C6.46342 9.26345 6.42507 9.27431 6.39524 9.27431C6.36541 9.27431 6.32706 9.26345 6.25888 9.17014C6.1907 9.07682 6.12251 8.91406 6.12251 8.71875C6.12251 8.52344 6.1907 8.36068 6.25888 8.26736C6.32706 8.17404 6.36541 8.16319 6.39524 8.16319ZM10.2134 8.16319C10.2433 8.16319 10.2816 8.17404 10.3498 8.26736C10.418 8.36068 10.4862 8.52344 10.4862 8.71875C10.4862 8.91406 10.418 9.07682 10.3498 9.17014C10.2816 9.26345 10.2433 9.27431 10.2134 9.27431C10.1836 9.27431 10.1452 9.26345 10.0771 9.17014C10.0089 9.07682 9.9407 8.91406 9.9407 8.71875C9.9407 8.52344 10.0089 8.36068 10.0771 8.26736C10.1452 8.17404 10.1836 8.16319 10.2134 8.16319Z" fill="#F0524D"/>
</svg>
