<svg width="25" height="24" viewBox="0 0 25 24" fill="none" xmlns="http://www.w3.org/2000/svg">
<path d="M22.3055 10.0415H21.5V10H12.5V14H18.1515C17.327 16.3285 15.1115 18 12.5 18C9.1865 18 6.5 15.3135 6.5 12C6.5 8.6865 9.1865 6 12.5 6C14.0295 6 15.421 6.577 16.4805 7.5195L19.309 4.691C17.523 3.0265 15.134 2 12.5 2C6.9775 2 2.5 6.4775 2.5 12C2.5 17.5225 6.9775 22 12.5 22C18.0225 22 22.5 17.5225 22.5 12C22.5 11.3295 22.431 10.675 22.3055 10.0415Z" fill="#FFC107"/>
<path d="M3.65292 7.3455L6.93842 9.755C7.82742 7.554 9.98042 6 12.4999 6C14.0294 6 15.4209 6.577 16.4804 7.5195L19.3089 4.691C17.5229 3.0265 15.1339 2 12.4999 2C8.65892 2 5.32792 4.1685 3.65292 7.3455Z" fill="#FF3D00"/>
<path d="M12.5001 22.0002C15.0831 22.0002 17.4301 21.0117 19.2046 19.4042L16.1096 16.7852C15.1056 17.5457 13.8576 18.0002 12.5001 18.0002C9.8991 18.0002 7.6906 16.3417 6.8586 14.0272L3.5976 16.5397C5.2526 19.7782 8.6136 22.0002 12.5001 22.0002Z" fill="#4CAF50"/>
<path d="M22.3055 10.0415H21.5V10H12.5V14H18.1515C17.7555 15.1185 17.036 16.083 16.108 16.7855C16.1085 16.785 16.109 16.785 16.1095 16.7845L19.2045 19.4035C18.9855 19.6025 22.5 17 22.5 12C22.5 11.3295 22.431 10.675 22.3055 10.0415Z" fill="#1976D2"/>
</svg>
