<svg xmlns="http://www.w3.org/2000/svg" width="108" height="41" viewBox="0 0 108 41">
  <g fill="#222C37" transform="matrix(1 0 0 -1 0 40.468)">
    <path d="M60.1826246 27.4176093L56.4244146 27.4176093 56.4244146 18.7256438C56.4244146 16.487688 55.5060749 14.7093441 52.8093913 14.7093441 50.1418754 14.6801764 49.3676063 16.5159719 49.3676063 18.8396628L49.3676063 27.4176093 45.6093963 27.4176093 45.6093963 17.8930394C45.6093963 15.1397882 46.5843036 11.2092238 51.7487488 11.1800561 54.5886192 11.1517723 55.9939705 12.5288398 56.6542205 13.7618368L56.6542205 11.6679516 60.1826246 11.6679516 60.1826246 27.4176093M61.6763628 11.6670678L65.4345728 11.6670678 65.4345728 20.3599171C65.4345728 22.5687052 66.3520286 24.3470492 69.0204284 24.3762168 71.6596606 24.3762168 72.4339296 22.5687052 72.4339296 20.2167304L72.4339296 11.6670678 76.1921396 11.6670678 76.1921396 21.1633538C76.1921396 23.9457727 75.2172324 27.8763372 70.0819548 27.904621 67.2703683 27.9329048 65.8641331 26.5567211 65.1764832 25.3228403 65.204767 26.0688255 65.204767 26.7281916 65.204767 27.4167254L61.6763628 27.4167254 61.6763628 11.6670678M77.6301941 11.6670678L81.3884041 11.6670678 81.3884041 27.4167254 77.6301941 27.4167254 77.6301941 11.6670678zM77.6301941 29.5397782L81.3884041 29.5397782 81.3884041 32.8967118 77.6301941 32.8967118 77.6301941 29.5397782"/>
    <polyline points="85.32 11.667 89.078 11.667 89.078 24.519 91.775 24.519 90.659 27.417 89.078 27.417 89.078 32.897 85.32 32.897 85.32 27.417 82.709 27.417 82.709 24.519 85.32 24.519 85.32 11.667"/>
    <polyline points="95.405 6.161 99.421 6.161 107.713 27.418 103.696 27.418 99.909 16.947 96.065 27.418 92.049 27.418 97.987 12.272 95.405 6.161"/>
    <path d="M25.0046475,19.6837575 L31.8642647,31.5293668 L35.1791261,19.6837575 L31.8642647,7.84079987 L25.0046475,19.6837575 Z M21.6610604,17.7604591 L28.5218265,5.91661755 L16.5736885,8.9774551 L7.94111897,17.7604591 L21.6614139,17.7604591 L21.6610604,17.7604591 Z M28.5205891,33.454433 L21.6610604,21.6088237 L7.94076542,21.6088237 L16.5733349,30.3918277 L28.5205891,33.454433 L28.5205891,33.454433 Z M38.3136783,23.715083 L34.1282945,39.2844314 L18.5076817,35.1116869 L16.1953926,31.0467744 L11.5033753,31.0803615 L0.0696488591,19.6828737 L11.5033753,8.28803746 L11.5036404,8.28803746 L16.1937133,8.32250835 L18.5093611,4.25759587 L34.1282061,0.084851402 L38.3136783,15.6524321 L35.93669,19.6837575 L38.3136783,23.715083"/>
  </g>
</svg>
