<svg xmlns="http://www.w3.org/2000/svg" width="1045" height="365" viewBox="0 0 1045 365">
  <path d="M140.51248 315.104056C189.710153 315.104056 227.750363 276.861399 227.750363 220.270965L227.750363.0223642173 281 .0223642173 281 356.909226 228.257898 356.909226 228.257898 323.76782C204.420365 348.747224 171.455512 363.022364 134.422053 363.022364 58.3333136 363.022364 0 307.45218 0 223.365166L0 .0809031626 53.2496373.0809031626 53.2496373 220.270965C53.2496373 277.88165 90.7823113 315.104056 140.49584 315.104056M322.075407.0223642173L373.662174.0223642173 373.662174 130.031655C397.969099 105.18009 431.315484 91.20166 466.111157 91.2780817 542.733049 91.2780817 603 151.950757 603 227.408999 603 302.357106 542.733049 363.021893 466.111157 363.021893 431.151634 363.115826 397.627917 349.149632 373.10919 324.276207L373.10919 356.891429 322 356.891429 322.075407.0223642173zM462.541893 317.652808C511.581579 317.652808 551.932703 277.368828 551.932703 227.408999 551.932703 176.930671 511.581579 137.16519 462.541893 137.16519 412.991115 137.16519 372.63999 176.930671 372.63999 227.408999 372.63999 277.368828 412.480023 317.652808 462.541893 317.652808M754.770607 93.0223642C829.260803 93.0223642 884 150.480353 884 227.772148L884 244.553317 673.71337 244.553317C680.812425 286.756455 715.775684 318.283701 759.334285 318.283701 789.260042 318.283701 814.580557 306.073149 833.832794 280.142406L870.832667 307.599468C844.980138 342.179352 806.467352 363.022364 759.334285 363.022364 681.801637 363.022364 622 305.055603 622 227.772148 622 154.550537 679.266261 93.0223642 754.77892 93.0223642M674.702583 203.876497L832.311568 203.876497C823.6996 164.208883 791.77048 137.769368 753.764769 137.769368 715.759058 137.769368 683.829938 164.208883 674.702583 203.876497M1023.57488 143.918704C989.936698 143.918704 965.477123 169.915512 965.477123 210.185898L965.477123 358.022364 914 358.022364 914 98.0375559 964.992279 98.0375559 964.992279 130.180281C977.731989 109.275803 998.630464 96.0223642 1027.16942 96.0223642L1045 96.0223642 1045 143.943789 1023.57488 143.918704z" transform="translate(0 .978)"/>
</svg>
