<svg xmlns="http://www.w3.org/2000/svg" width="109" height="21" viewBox="0 0 109 21">
  <path d="M76.2993885,4.31687358 C74.6222777,4.31687358 73.4245156,4.89294098 72.8366121,5.98256636 L72.5207054,6.56966484 L72.5207054,4.60123025 L69.7885394,4.60123025 L69.7885394,16.5944634 L72.6621925,16.5944634 L72.6621925,9.45980728 C72.6621925,7.75489289 73.5830788,6.77680397 75.1906658,6.77680397 C76.7226303,6.77680397 77.6008265,7.72792803 77.6008265,9.38871811 L77.6008265,16.5944634 L80.4744796,16.5944634 L80.4744796,8.87270879 C80.4744796,6.02178797 78.9132419,4.31687358 76.2993885,4.31687358 L76.2993885,4.31687358 Z M62.3677815,4.31687358 C58.978188,4.31687358 56.8717369,6.44096893 56.8717369,9.86305446 L56.8717369,11.5471324 C56.8717369,14.8356193 58.9964838,16.8800458 62.4153504,16.8800458 C64.7011,16.8800458 66.3038081,16.0367811 67.312514,14.3061276 L65.5305075,13.2777859 C64.7852605,14.2767113 63.5960364,14.8944517 62.4153504,14.8944517 C60.6845721,14.8944517 59.6502521,13.8207601 59.6502521,12.0214687 L59.6502521,11.544681 L67.6747699,11.544681 L67.6747699,9.55418428 C67.6747699,6.36742841 65.5914934,4.31687358 62.3677815,4.31687358 L62.3677815,4.31687358 Z M65.0609165,9.60443697 L59.6502521,9.60443697 L59.6502521,9.31762894 C59.6502521,7.3418403 60.6150482,6.2534406 62.3677815,6.2534406 C64.05465,6.2534406 65.0609165,7.3271322 65.0609165,9.12642359 L65.0609165,9.60443697 Z M109,2.62666729 L109,0.332203064 L99.0654054,0.332203064 L99.0654054,2.62666729 L102.548917,2.62666729 L102.548917,14.3012248 L99.0654054,14.3012248 L99.0654054,16.5944634 L109,16.5944634 L109,14.3012248 L105.516488,14.3012248 L105.516488,2.62666729 L109,2.62666729 L109,2.62666729 Z M33.6641824,4.50487978e-05 C29.2256324,4.50487978e-05 26.4678524,2.77987671 26.4678524,7.25359168 L26.4678524,9.67307479 C26.4678524,14.1480154 29.2244127,16.9266214 33.6641824,16.9266214 C38.1039521,16.9266214 40.8605124,14.1480154 40.8605124,9.67307479 L40.8605124,7.25359168 C40.8592927,2.77987671 38.1015127,4.50487978e-05 33.6641824,4.50487978e-05 Z M37.8917214,9.83854096 C37.8917214,12.809578 36.3512188,14.5144924 33.6641824,14.5144924 C30.9771459,14.5144924 29.4354237,12.809578 29.4354237,9.83854096 L29.4354237,7.08812551 C29.4354237,4.1170885 30.9759262,2.41217411 33.6629627,2.41217411 C36.3499991,2.41217411 37.8905016,4.1170885 37.8905016,7.08812551 L37.8917214,9.83854096 Z M49.8827587,4.32300195 C48.3751886,4.32300195 47.0688717,4.94932205 46.3894894,6.00095149 L46.0796813,6.47896487 L46.0796813,4.60123025 L43.348735,4.60123025 L43.348735,20.7213122 L46.2211684,20.7213122 L46.2211684,14.8834206 L46.5297568,15.3418232 C47.1762068,16.3039783 48.4386138,16.8800458 49.9059333,16.8800458 C52.3831785,16.8800458 54.8823785,15.2523489 54.8823785,11.6182215 L54.8823785,9.57624644 C54.8823785,6.9594296 53.341876,4.31687358 49.881539,4.31687358 L49.8827587,4.32300195 Z M52.0099451,11.4809459 C52.0099451,13.4138359 50.8878055,14.6149977 49.0826244,14.6149977 C47.399415,14.6149977 46.2236079,13.3464238 46.2236079,11.5287472 L46.2236079,9.7270045 C46.2236079,7.88113745 47.4091727,6.59295267 49.105799,6.59295267 C50.8987829,6.59295267 52.0123845,7.7941145 52.0123845,9.7270045 L52.0099451,11.4809459 L52.0099451,11.4809459 Z M88.414837,0.338331441 L82.6150829,16.5944634 L85.5302064,16.5944634 L86.6401488,13.1086427 L93.305902,13.1086427 L93.3168794,13.1429617 L94.4146247,16.5944634 L97.3334073,16.5944634 L91.5287744,0.332203064 L88.414837,0.338331441 Z M87.3573424,10.8203069 L89.9724155,2.58989703 L92.5618746,10.8105015 L87.3573424,10.8203069 L87.3573424,10.8203069 Z M19.0041604,8.47951215 C19.4706039,7.06802303 19.3091732,5.52300981 18.5611592,4.23965603 C17.4363362,2.27232455 15.1757128,1.26028443 12.9680251,1.73572389 C11.7238351,0.345022897 9.83604832,-0.273385046 8.01526874,0.113282256 C6.19448916,0.499949558 4.71710125,1.83299811 4.13922594,3.61063945 C2.68900299,3.90951155 1.43733064,4.82198766 0.704503001,6.11457159 C-0.432517143,8.07871631 -0.174425036,10.556419 1.34265891,12.2414774 C0.874506263,13.6523505 1.03453522,15.1975627 1.78175701,16.4813336 C2.9077997,18.4494004 5.16988677,19.461318 7.37891614,18.9852657 C8.36147976,20.0970625 9.7730533,20.7296123 11.2527372,20.7212727 C13.5155561,20.7232733 15.5205268,19.255282 16.2116184,17.0900039 C17.661625,16.7906384 18.9131141,15.8782959 19.6463414,14.5860718 C20.7697007,12.625359 20.5105108,10.1610161 19.0041604,8.47951215 L19.0041604,8.47951215 Z M11.2526152,19.3651025 C10.3493667,19.3665651 9.47443318,19.0484587 8.78122472,18.4665599 L8.90319642,18.3970641 L13.0086417,16.0156995 C13.2164954,15.893178 13.3447058,15.6696468 13.3460154,15.4274979 L13.3460154,9.61093305 L15.0816726,10.619909 C15.0990336,10.6287789 15.1111346,10.6454478 15.1142391,10.6647687 L15.1142391,15.484737 C15.1097261,17.6259918 13.3834607,19.3606901 11.2526152,19.3652251 L11.2526152,19.3651025 Z M2.95231937,15.80329 C2.49935165,15.0173184 2.33669946,14.0960099 2.49297397,13.2014264 L2.61494566,13.2749669 L6.72441602,15.6562089 C6.93147634,15.7783272 7.18807806,15.7783272 7.39513838,15.6562089 L12.4151274,12.7480491 L12.4151274,14.7618336 C12.4141412,14.7829026 12.4036864,14.8023814 12.386708,14.8147828 L8.228449,17.2248282 C6.38057781,18.2944751 4.01981565,17.6584722 2.95231937,15.80329 L2.95231937,15.80329 Z M1.87104029,6.81725126 C2.32716357,6.02617668 3.04712216,5.42279549 3.90345465,5.11393025 L3.90345465,10.0154059 C3.90030281,10.2566272 4.02803244,10.4804594 4.2368033,10.5995628 L9.23239802,13.4955885 L7.4967408,14.5045644 C7.47767329,14.5147404 7.45482246,14.5147404 7.43575495,14.5045644 L3.28566802,12.0985637 C1.44145598,11.0245044 0.809032744,8.65392575 1.87104029,6.79678248 L1.87104029,6.81725126 Z M16.1303853,10.1461855 L11.1185683,7.22160155 L12.8500785,6.21679291 C12.869146,6.20661693 12.8919968,6.20661693 12.9110644,6.21679291 L17.0612733,8.62671575 C18.356515,9.3778577 19.1037306,10.8129667 18.9793128,12.3105196 C18.854895,13.8080726 17.8812142,15.0988079 16.4799562,15.6237285 L16.4799562,10.7220077 C16.4726799,10.4815059 16.3398437,10.262648 16.1303853,10.1460629 L16.1303853,10.1461855 Z M17.8578704,7.53610984 L17.7358987,7.46256932 L13.6346004,5.0608585 C13.4262947,4.93801787 13.1681588,4.93801787 12.959853,5.0608585 L7.94388903,7.9688958 L7.94388903,5.95511123 C7.941786,5.93430895 7.95113817,5.91400958 7.96828337,5.90216205 L12.1183703,3.49616137 C13.4168636,2.74446702 15.0307042,2.81463084 16.2597385,3.67621274 C17.4887728,4.53779465 18.1115453,6.03554918 17.8578704,7.51968579 L17.8578704,7.53598727 L17.8578704,7.53610984 Z M6.99677882,11.1060118 L5.26112159,10.1012032 C5.24356514,10.0905257 5.23163434,10.0725645 5.22855515,10.0521762 L5.22855515,5.24446467 C5.23054022,3.73891695 6.0980739,2.3701012 7.45491963,1.73165263 C8.81176537,1.09320407 10.4135467,1.3001113 11.5655946,2.26264172 L11.4436229,2.33213751 L7.33817759,4.71350211 C7.13032387,4.83602363 7.0021135,5.0595548 7.00080388,5.30170371 L6.99677882,11.1060118 Z M7.93986397,9.06366901 L10.1754832,7.76886559 L12.4151274,9.06366901 L12.4151274,11.6532759 L10.1835333,12.9482018 L7.944011,11.6532759 L7.93998594,9.06366901 L7.93986397,9.06366901 Z"/>
</svg>
