<svg xmlns="http://www.w3.org/2000/svg" width="109" height="29" viewBox="0 0 109 29">
  <path fill="#153353" d="M92.0737579,20.9309582 C89.9132877,20.9309582 88.1561652,19.1971921 88.1561652,17.0654684 C88.1561652,14.9337446 89.9132877,13.1990802 92.0737579,13.1990802 C93.3907014,13.1990802 94.6124226,13.8476704 95.341862,14.9328463 L97.2310382,13.6967519 C96.0802847,11.9845456 94.1533788,10.9622525 92.0737579,10.9622525 C88.6637185,10.9622525 85.8896928,13.6994469 85.8896928,17.0654684 C85.8896928,20.4296932 88.6637185,23.1677859 92.0737579,23.1677859 C94.20638,23.1677859 96.1602355,22.1059665 97.3020058,20.3254875 L95.3876766,19.1289195 C94.6636271,20.2572149 93.4248378,20.9309582 92.0737579,20.9309582 M56.9879024,15.9470545 C57.4774892,14.3633086 58.9552328,13.1990802 60.7177452,13.1990802 C62.4820543,13.1990802 63.9588996,14.3633086 64.4484864,15.9470545 L56.9879024,15.9470545 Z M60.7177452,10.9622525 C57.3086042,10.9622525 54.5345785,13.6994469 54.5345785,17.0654684 C54.5345785,20.4296932 57.3086042,23.1677859 60.7177452,23.1677859 C62.8512656,23.1677859 64.8060195,22.1050682 65.9477898,20.3236909 L64.0316639,19.1280211 C63.3085127,20.2572149 62.0697234,20.9309582 60.7177452,20.9309582 C58.9552328,20.9309582 57.4774892,19.7676281 56.9879024,18.1838822 L66.9018103,18.1838822 L66.9018103,17.0654684 C66.9018103,13.6994469 64.1286829,10.9622525 60.7177452,10.9622525 M103.987336,11.21558 C103.02523,11.21558 102.126008,11.4841789 101.362432,11.949511 L101.362432,0 L98.9764825,0 L98.9764825,22.9845277 L101.362432,22.9845277 L101.362432,16.1599574 C101.362432,14.7316216 102.540135,13.5700882 103.987336,13.5700882 C105.433638,13.5700882 106.611341,14.7316216 106.611341,16.1599574 L106.611341,28.881129 L108.997291,28.881129 L108.997291,16.1599574 C108.997291,13.4326445 106.749683,11.21558 103.987336,11.21558 M73.8943673,11.21558 C71.1311215,11.21558 68.8844122,13.4326445 68.8844122,16.1599574 L68.8844122,22.9845277 L71.2694634,22.9845277 L71.2694634,16.1599574 C71.2694634,14.7316216 72.4471667,13.5700882 73.8943673,13.5700882 C75.3415679,13.5700882 76.5192712,14.7316216 76.5192712,16.1599574 L76.5192712,22.9845277 L78.9043224,22.9845277 L78.9043224,16.1599574 C78.9043224,13.4326445 76.6567148,11.21558 73.8943673,11.21558 M47.6947366,11.21558 C46.1666868,11.21558 44.7976405,11.8947132 43.8777563,12.9619226 C42.9578721,11.8947132 41.5879274,11.21558 40.060776,11.21558 C37.2966318,11.21558 35.0499225,13.4326445 35.0499225,16.1599574 L35.0499225,22.9845277 L37.4358721,22.9845277 L37.4358721,16.1599574 C37.4358721,14.7316216 38.6126771,13.5700882 40.060776,13.5700882 C41.5070782,13.5700882 42.6838832,14.7316216 42.6838832,16.1599574 L42.6838832,22.9845277 L45.0707311,22.9845277 L45.0707311,16.1599574 C45.0707311,14.7316216 46.2484343,13.5700882 47.6947366,13.5700882 C49.1428355,13.5700882 50.3196405,14.7316216 50.3196405,16.1599574 L50.3196405,22.9845277 L52.70559,22.9845277 L52.70559,16.1599574 C52.70559,13.4326445 50.4570841,11.21558 47.6947366,11.21558 M26.1520195,16.1599574 L26.1520195,22.9845277 L28.5379691,22.9845277 L28.5379691,16.1599574 C28.5379691,14.7316216 29.714774,13.5700882 31.1619746,13.5700882 C32.0899437,13.5700882 32.9038256,14.0479967 33.3709543,14.7657579 C33.5910437,13.9294179 34.0078663,13.1694355 34.5657257,12.5352185 C33.6718929,11.716845 32.4753249,11.21558 31.1619746,11.21558 C28.3996271,11.21558 26.1520195,13.4326445 26.1520195,16.1599574 M81.3396798,8.23314299 L83.7265277,8.23314299 L83.7265277,5.28484236 L81.3396798,5.28484236 L81.3396798,8.23314299 Z M20.8393291,8.23314299 L23.2252787,8.23314299 L23.2252787,5.28484236 L20.8393291,5.28484236 L20.8393291,8.23314299 Z M81.3396798,22.9845277 L83.7265277,22.9845277 L83.7265277,11.1805453 L81.3396798,11.1805453 L81.3396798,22.9845277 Z M12.7211716,11.1814436 L12.7211716,2.35540654 L35.5673574,2.35540654 L35.5673574,0 L0,0 L0,2.35540654 L10.3352221,2.35540654 L10.3352221,11.1814436 L4.32094029,11.1814436 L4.32094029,13.5359518 L10.3352221,13.5359518 L10.3352221,28.881129 L12.7211716,28.881129 L12.7211716,13.5359518 L20.8393291,13.5359518 L20.8393291,22.9845277 L23.2252787,22.9845277 L23.2252787,11.1814436 L12.7211716,11.1814436 Z"/>
</svg>
