<svg width="16" height="16" viewBox="0 0 16 16" fill="none" xmlns="http://www.w3.org/2000/svg">
<path d="M15.0264 4.27935C14.9472 3.96296 14.7859 3.67306 14.5588 3.43895C14.3317 3.20484 14.0469 3.03481 13.7331 2.94602C12.5864 2.66602 7.99973 2.66602 7.99973 2.66602C7.99973 2.66602 3.41306 2.66602 2.2664 2.97268C1.95256 3.06147 1.66771 3.23151 1.44063 3.46562C1.21354 3.69973 1.05226 3.98962 0.973063 4.30602C0.763206 5.46972 0.660554 6.65022 0.666397 7.83268C0.658916 9.02405 0.761575 10.2135 0.973063 11.386C1.06037 11.6926 1.22527 11.9714 1.45183 12.1957C1.67838 12.4199 1.95894 12.5819 2.2664 12.666C3.41306 12.9727 7.99973 12.9727 7.99973 12.9727C7.99973 12.9727 12.5864 12.9727 13.7331 12.666C14.0469 12.5772 14.3317 12.4072 14.5588 12.1731C14.7859 11.939 14.9472 11.6491 15.0264 11.3327C15.2346 10.1777 15.3373 9.00624 15.3331 7.83268C15.3405 6.64132 15.2379 5.45181 15.0264 4.27935V4.27935Z" stroke="#F0524D" stroke-linecap="round" stroke-linejoin="round"/>
<path d="M6.5 10.0123L10.3333 7.83234L6.5 5.65234V10.0123Z" stroke="#F0524D" stroke-linecap="round" stroke-linejoin="round"/>
</svg>
